{"title":"River.Monsters.S03E10.The.Lost.Reels.Himalayan.Giant.HDTV.XviD-t","uid":6429544,"size":366780416,"categoryP":"video","categoryS":"tv_shows","magnet":"?xt=urn:btih:56b4a941a6d40efa7a18f639ef34c793c107ac9d&amp;dn=River.Monsters.S03E10.The.Lost.Reels.Himalayan.Giant.HDTV.XviD-t&amp;tr=udp%3A%2F%2Ftracker.openbittorrent.com%3A80&amp;tr=udp%3A%2F%2Fopen.demonii.com%3A1337&amp;tr=udp%3A%2F%2Ftracker.coppersurfer.tk%3A6969&amp;tr=udp%3A%2F%2Fexodus.desync.com%3A6969","seeders":1,"leechers":0,"uploader":"trialNerror","files":1,"time":1306596446,"description":"Format                           : AVI\nFormat/Info                      : Audio Video Interleave\nFile size                        : 350 MiB\nDuration                         : 42mn 7s\nOverall bit rate                 : 1 161 Kbps\nWriting application              : VirtualDubMod 1.5.10.2 (build 2542/release)\nWriting library                  : VirtualDubMod build 2542/release\n\nVideo\nID                               : 0\nFormat                           : MPEG-4 Visual\nFormat profile                   : Advanced Simple@L5\nFormat settings, BVOP            : Yes\nFormat settings, QPel            : No\nFormat settings, GMC             : No warppoints\nFormat settings, Matrix          : Default (H.263)\nMuxing mode                      : Packed bitstream\nCodec ID                         : XVID\nCodec ID/Hint                    : XviD\nDuration                         : 42mn 7s\nBit rate                         : 1 020 Kbps\nWidth                            : 624 pixels\nHeight                           : 396 pixels\nDisplay aspect ratio             : 1.576\nFrame rate                       : 29.970 fps\nColor space                      : YUV\nChroma subsampling               : 4:2:0\nBit depth                        : 8 bits\nScan type                        : Progressive\nBits/(Pixel*Frame)               : 0.138\nStream size                      : 307 MiB (88%)\nWriting library                  : XviD 58\n\nAudio\nID                               : 1\nFormat                           : MPEG Audio\nFormat version                   : Version 1\nFormat profile                   : Layer 3\nMode                             : Joint stereo\nMode extension                   : MS Stereo\nCodec ID                         : 55\nCodec ID/Hint                    : MP3\nDuration                         : 42mn 7s\nBit rate mode                    : Variable\nBit rate                         : 128 Kbps\nChannel(s)                       : 2 channels\nSampling rate                    : 48.0 KHz\nStream size                      : 38.2 MiB (11%)\nAlignment                        : Aligned on interleaves\nInterleave, duration             : 24 ms (0.72 video frame)\nInterleave, preload duration     : 538 ms","torrent":{"xt":"urn:btih:56b4a941a6d40efa7a18f639ef34c793c107ac9d","amp;dn":"River.Monsters.S03E10.The.Lost.Reels.Himalayan.Giant.HDTV.XviD-t","amp;tr":["udp%3A%2F%2Ftracker.openbittorrent.com%3A80","udp%3A%2F%2Fopen.demonii.com%3A1337","udp%3A%2F%2Ftracker.coppersurfer.tk%3A6969","udp%3A%2F%2Fexodus.desync.com%3A6969"],"infoHash":"56b4a941a6d40efa7a18f639ef34c793c107ac9d","infoHashBuffer":{"type":"Buffer","data":[86,180,169,65,166,212,14,250,122,24,246,57,239,52,199,147,193,7,172,157]},"announce":[],"urlList":[]}}